<svg width="82" height="15" viewBox="0 0 82 15" fill="none" xmlns="http://www.w3.org/2000/svg">
<g clip-path="url(#clip0_177_379)">
<path d="M11.3428 14.7117L11.3566 13.504C10.2312 14.4372 8.79024 15.0136 7.21201 15.0136C3.6164 14.9999 0.720703 12.1042 0.720703 8.52231C0.720703 4.94043 3.6164 2.03101 7.19829 2.03101C10.1352 2.03101 12.6054 3.97977 13.4151 6.65589H10.4783C9.84696 5.59917 8.69417 4.88553 7.3767 4.88553C5.38676 4.88553 3.76736 6.50493 3.76736 8.49487C3.76736 10.4848 5.38676 12.1042 7.3767 12.1042C8.76279 12.1042 9.95675 11.3357 10.5606 10.1966H6.99243V7.72634H13.6347C13.6347 7.72634 13.6347 7.72634 13.6347 7.74006L13.6484 9.23595L13.6896 14.7254H11.3428V14.7117Z" fill="#EF3739"/>
<path d="M34.0279 2.59378C33.2319 2.48399 32.1752 2.85453 32.1752 2.85453C32.5869 2.36048 32.4771 1.31747 32.4771 1.31747C31.3655 1.34492 30.6656 2.1409 30.6656 2.1409C30.199 0.590119 29.0325 0 29.0325 0C28.4835 0.823422 28.5796 2.00366 28.6619 2.55261C27.8797 2.22324 27.0288 2.04483 26.1368 2.04483C22.5549 2.04483 19.6592 4.94053 19.6592 8.52241C19.6592 12.1043 22.5549 15 26.1368 15C29.7186 15 32.6143 12.0906 32.6143 8.52241C32.6143 7.42452 32.3399 6.38152 31.8595 5.47575C33.8083 4.44648 34.0279 2.59378 34.0279 2.59378ZM26.1368 13.4629C23.4057 13.4629 21.1962 11.2534 21.1962 8.52241C21.1962 5.7914 23.4057 3.58188 26.1368 3.58188C28.8678 3.58188 31.0773 5.7914 31.0773 8.52241C31.0773 11.2534 28.8541 13.4629 26.1368 13.4629Z" fill="#F1393E"/>
<path d="M25.8207 5.21511C26.1618 5.21511 26.4383 4.93862 26.4383 4.59755C26.4383 4.25647 26.1618 3.97998 25.8207 3.97998C25.4796 3.97998 25.2031 4.25647 25.2031 4.59755C25.2031 4.93862 25.4796 5.21511 25.8207 5.21511Z" fill="#EF3739"/>
<path d="M24.0648 5.75027C24.4059 5.75027 24.6824 5.47378 24.6824 5.1327C24.6824 4.79163 24.4059 4.51514 24.0648 4.51514C23.7238 4.51514 23.4473 4.79163 23.4473 5.1327C23.4473 5.47378 23.7238 5.75027 24.0648 5.75027Z" fill="#EF3739"/>
<path d="M23.6801 7.23245C24.0211 7.23245 24.2976 6.95595 24.2976 6.61488C24.2976 6.27381 24.0211 5.99731 23.6801 5.99731C23.339 5.99731 23.0625 6.27381 23.0625 6.61488C23.0625 6.95595 23.339 7.23245 23.6801 7.23245Z" fill="#EF3739"/>
<path d="M25.2445 6.91677C25.5856 6.91677 25.8621 6.64028 25.8621 6.29921C25.8621 5.95813 25.5856 5.68164 25.2445 5.68164C24.9034 5.68164 24.627 5.95813 24.627 6.29921C24.627 6.64028 24.9034 6.91677 25.2445 6.91677Z" fill="#EF3739"/>
<path d="M26.933 6.46389C27.2741 6.46389 27.5506 6.1874 27.5506 5.84633C27.5506 5.50525 27.2741 5.22876 26.933 5.22876C26.5919 5.22876 26.3154 5.50525 26.3154 5.84633C26.3154 6.1874 26.5919 6.46389 26.933 6.46389Z" fill="#EF3739"/>
<path d="M28.182 5.55813C28.5231 5.55813 28.7996 5.28164 28.7996 4.94056C28.7996 4.59949 28.5231 4.323 28.182 4.323C27.8409 4.323 27.5645 4.59949 27.5645 4.94056C27.5645 5.28164 27.8409 5.55813 28.182 5.55813Z" fill="#EF3739"/>
<path d="M28.5658 6.99905C28.9069 6.99905 29.1834 6.72255 29.1834 6.38148C29.1834 6.04041 28.9069 5.76392 28.5658 5.76392C28.2247 5.76392 27.9482 6.04041 27.9482 6.38148C27.9482 6.72255 28.2247 6.99905 28.5658 6.99905Z" fill="#EF3739"/>
<path d="M29.9379 7.72634C30.279 7.72634 30.5554 7.44985 30.5554 7.10878C30.5554 6.7677 30.279 6.49121 29.9379 6.49121C29.5968 6.49121 29.3203 6.7677 29.3203 7.10878C29.3203 7.44985 29.5968 7.72634 29.9379 7.72634Z" fill="#EF3739"/>
<path d="M28.8129 8.67336C29.154 8.67336 29.4304 8.39687 29.4304 8.0558C29.4304 7.71473 29.154 7.43823 28.8129 7.43823C28.4718 7.43823 28.1953 7.71473 28.1953 8.0558C28.1953 8.39687 28.4718 8.67336 28.8129 8.67336Z" fill="#EF3739"/>
<path d="M27.3168 7.98709C27.6579 7.98709 27.9344 7.71059 27.9344 7.36952C27.9344 7.02845 27.6579 6.75195 27.3168 6.75195C26.9757 6.75195 26.6992 7.02845 26.6992 7.36952C26.6992 7.71059 26.9757 7.98709 27.3168 7.98709Z" fill="#EF3739"/>
<path d="M30.1713 9.71633C30.5123 9.71633 30.7888 9.43984 30.7888 9.09877C30.7888 8.7577 30.5123 8.4812 30.1713 8.4812C29.8302 8.4812 29.5537 8.7577 29.5537 9.09877C29.5537 9.43984 29.8302 9.71633 30.1713 9.71633Z" fill="#EF3739"/>
<path d="M28.4291 10.2241C28.7702 10.2241 29.0467 9.94765 29.0467 9.60658C29.0467 9.26551 28.7702 8.98901 28.4291 8.98901C28.088 8.98901 27.8115 9.26551 27.8115 9.60658C27.8115 9.94765 28.088 10.2241 28.4291 10.2241Z" fill="#EF3739"/>
<path d="M29.4301 11.4729C29.7711 11.4729 30.0476 11.1964 30.0476 10.8554C30.0476 10.5143 29.7711 10.2378 29.4301 10.2378C29.089 10.2378 28.8125 10.5143 28.8125 10.8554C28.8125 11.1964 29.089 11.4729 29.4301 11.4729Z" fill="#EF3739"/>
<path d="M28.017 12.3513C28.3581 12.3513 28.6345 12.0748 28.6345 11.7338C28.6345 11.3927 28.3581 11.1162 28.017 11.1162C27.6759 11.1162 27.3994 11.3927 27.3994 11.7338C27.3994 12.0748 27.6759 12.3513 28.017 12.3513Z" fill="#EF3739"/>
<path d="M26.0814 13.1748C26.4225 13.1748 26.699 12.8983 26.699 12.5573C26.699 12.2162 26.4225 11.9397 26.0814 11.9397C25.7404 11.9397 25.4639 12.2162 25.4639 12.5573C25.4639 12.8983 25.7404 13.1748 26.0814 13.1748Z" fill="#EF3739"/>
<path d="M23.6801 12.3513C24.0211 12.3513 24.2976 12.0748 24.2976 11.7338C24.2976 11.3927 24.0211 11.1162 23.6801 11.1162C23.339 11.1162 23.0625 11.3927 23.0625 11.7338C23.0625 12.0748 23.339 12.3513 23.6801 12.3513Z" fill="#EF3739"/>
<path d="M25.1898 11.7337C25.5309 11.7337 25.8074 11.4572 25.8074 11.1161C25.8074 10.775 25.5309 10.4985 25.1898 10.4985C24.8488 10.4985 24.5723 10.775 24.5723 11.1161C24.5723 11.4572 24.8488 11.7337 25.1898 11.7337Z" fill="#EF3739"/>
<path d="M26.809 11.2534C27.15 11.2534 27.4265 10.9769 27.4265 10.6359C27.4265 10.2948 27.15 10.0183 26.809 10.0183C26.4679 10.0183 26.1914 10.2948 26.1914 10.6359C26.1914 10.9769 26.4679 11.2534 26.809 11.2534Z" fill="#EF3739"/>
<path d="M26.8363 9.51052C27.1774 9.51052 27.4539 9.23403 27.4539 8.89296C27.4539 8.55189 27.1774 8.27539 26.8363 8.27539C26.4952 8.27539 26.2188 8.55189 26.2188 8.89296C26.2188 9.23403 26.4952 9.51052 26.8363 9.51052Z" fill="#EF3739"/>
<path d="M25.3549 8.57742C25.6959 8.57742 25.9724 8.30092 25.9724 7.95985C25.9724 7.61878 25.6959 7.34229 25.3549 7.34229C25.0138 7.34229 24.7373 7.61878 24.7373 7.95985C24.7373 8.30092 25.0138 8.57742 25.3549 8.57742Z" fill="#EF3739"/>
<path d="M25.0385 10.1555C25.3795 10.1555 25.656 9.87905 25.656 9.53798C25.656 9.1969 25.3795 8.92041 25.0385 8.92041C24.6974 8.92041 24.4209 9.1969 24.4209 9.53798C24.4209 9.87905 24.6974 10.1555 25.0385 10.1555Z" fill="#EF3739"/>
<path d="M23.3783 10.7732C23.7194 10.7732 23.9959 10.4967 23.9959 10.1557C23.9959 9.81458 23.7194 9.53809 23.3783 9.53809C23.0372 9.53809 22.7607 9.81458 22.7607 10.1557C22.7607 10.4967 23.0372 10.7732 23.3783 10.7732Z" fill="#EF3739"/>
<path d="M23.6117 8.87918C23.9528 8.87918 24.2293 8.60268 24.2293 8.26161C24.2293 7.92054 23.9528 7.64404 23.6117 7.64404C23.2706 7.64404 22.9941 7.92054 22.9941 8.26161C22.9941 8.60268 23.2706 8.87918 23.6117 8.87918Z" fill="#EF3739"/>
<path d="M22.226 9.71633C22.567 9.71633 22.8435 9.43984 22.8435 9.09877C22.8435 8.7577 22.567 8.4812 22.226 8.4812C21.8849 8.4812 21.6084 8.7577 21.6084 9.09877C21.6084 9.43984 21.8849 9.71633 22.226 9.71633Z" fill="#EF3739"/>
<path d="M22.226 8.05569C22.567 8.05569 22.8435 7.7792 22.8435 7.43812C22.8435 7.09705 22.567 6.82056 22.226 6.82056C21.8849 6.82056 21.6084 7.09705 21.6084 7.43812C21.6084 7.7792 21.8849 8.05569 22.226 8.05569Z" fill="#EF3739"/>
<path d="M46.1738 10.3613C46.5306 10.1554 46.86 9.90841 47.1482 9.62021C47.9579 8.81051 48.452 7.71262 48.452 6.47748C48.452 4.02094 46.462 2.03101 44.0055 2.03101H37.8984V14.9999H40.9863V10.924H42.9213L46.1052 14.9999H49.7694L46.1738 10.3613ZM41 4.7483H43.7585C44.7054 4.7483 45.4739 5.51682 45.4739 6.46376C45.4739 6.93037 45.2818 7.36952 44.9661 7.67145C44.6505 7.98709 44.2251 8.17922 43.7585 8.17922H41V4.7483Z" fill="#EF3739"/>
<path d="M61.764 2.20947H58.8957L53.4062 15.0137H56.7548L57.7018 12.5846H62.9442L63.8912 15.0137H67.2397L61.764 2.20947ZM58.7997 9.79868L60.3367 5.8737L61.8738 9.79868H58.7997Z" fill="#EF3739"/>
<path d="M81.2789 12.1728V14.9999H72.0703V2.03101H75.1856V12.1728H81.2789Z" fill="#EF3739"/>
</g>
<defs>
<clipPath id="clip0_177_379">
<rect width="80.5581" height="15" fill="white" transform="translate(0.720703)"/>
</clipPath>
</defs>
</svg>
