<?xml version="1.0" encoding="UTF-8"?>
<svg id="Capa_1" xmlns="http://www.w3.org/2000/svg" version="1.1" viewBox="0 0 6126.7 1337.5">
  <!-- Generator: Adobe Illustrator 29.0.1, SVG Export Plug-In . SVG Version: 2.1.0 Build 192)  -->
  <defs>
    <style>
      .st0 {
        fill: #fefafa;
      }
    </style>
  </defs>
  <path class="st0" d="M910.1,1296.5l.9-102.2c-95,79.3-217.1,126.9-350.4,126.9-302.4,0-547.4-245.1-547.4-547.4S258.2,226.3,560.6,226.3s457.1,164.7,524.6,390.5h-248.4c-53-89.8-150.6-149.9-262.3-149.9-168.2,0-304.5,136.3-304.5,304.4s136.3,304.5,304.5,304.5,217.7-65.5,268.9-161.6h-301v-208.5h565.6v590.9s-198,0-198,0Z"/>
  <path class="st0" d="M3379.4,928.8c30.4-16.9,58.1-37.9,82.5-62.3,67.8-67.9,109.8-161.5,109.8-265.1,0-207.1-167.9-375-374.9-375h-515.2v1094.9h261v-344.9h163.4l268.3,344.3h309l-303.9-391.8ZM2942.5,455.3h232.9c79.9,0,144.6,64.8,144.6,144.6s-16.2,76-42.4,102.2c-26.1,26.2-62.2,42.4-102.2,42.4h-232.9v-289.2Z"/>
  <path class="st0" d="M4627.8,240.5h-241.9l-463.2,1080.7h283.1l79.9-204.8h442.2l79.9,204.8h283.1l-463.2-1080.7ZM4377.6,881.4l129.3-331.1,129.3,331.1h-258.6Z"/>
  <polygon class="st0" points="6107.6 1082.5 6107.6 1321.2 5330.4 1321.2 5330.4 226.3 5593.2 226.3 5593.2 1082.5 6107.6 1082.5"/>
  <g>
    <path class="st0" d="M2430.6,145.6c-67.3,4.8-147.9,54.4-147.9,54.4,25.7-48.2-1.8-132.6-1.8-132.6-91.1,22.3-135.3,100.1-135.3,100.1-66.5-120.7-173.1-148.3-173.1-148.3-30.6,77.7-2.7,173.2,13.8,217.3-70-13.5-143.6-13.5-217.7,2.3-295.7,63.1-484.3,353.8-421.2,649.5,63,295.6,353.8,484.3,649.6,421.2,295.6-63,484.2-353.9,421.1-649.5-19.4-90.8-60.3-171.6-116.2-238,143-119.9,128.7-276.3,128.7-276.3ZM1969.7,1181.9c-225.3,48-446.8-95.7-494.9-320.9-48-225.3,95.7-446.8,320.9-494.8,225.3-48,446.7,95.6,494.8,320.8,48,225.3-95.6,446.8-320.8,494.9Z"/>
    <g>
      <g>
        <circle class="st0" cx="1942.5" cy="1055.1" r="47.8"/>
        <circle class="st0" cx="1667.2" cy="967.2" r="47.8"/>
        <circle class="st0" cx="1605.7" cy="684.9" r="47.8"/>
        <circle class="st0" cx="1819.4" cy="490.4" r="47.8"/>
        <circle class="st0" cx="2094.7" cy="578.3" r="47.8"/>
        <circle class="st0" cx="2156.2" cy="860.7" r="47.8"/>
      </g>
      <g>
        <circle class="st0" cx="2085.7" cy="999.4" r="47.8"/>
        <circle class="st0" cx="1788.3" cy="1063.8" r="47.8"/>
        <circle class="st0" cx="1583.9" cy="838.5" r="47.8"/>
        <circle class="st0" cx="1676.8" cy="548.7" r="47.8"/>
        <circle class="st0" cx="1974.2" cy="484.4" r="47.8"/>
        <circle class="st0" cx="2178.6" cy="709.7" r="47.8"/>
      </g>
      <g>
        <circle class="st0" cx="1984.1" cy="890" r="47.8"/>
        <circle class="st0" cx="1831" cy="920.7" r="47.8"/>
        <circle class="st0" cx="1727.8" cy="803.5" r="47.8"/>
        <circle class="st0" cx="1777.8" cy="655.5" r="47.8"/>
        <circle class="st0" cx="1930.9" cy="624.8" r="47.8"/>
        <circle class="st0" cx="2034.1" cy="742.1" r="47.8"/>
      </g>
      <circle class="st0" cx="1885.7" cy="771.8" r="47.8"/>
    </g>
  </g>
</svg>